<svg width="120" height="120" viewBox="0 0 120 120" fill="none" xmlns="http://www.w3.org/2000/svg">
<circle cx="60" cy="60" r="60" fill="#121212"/>
<path d="M56.085 75.3135C55.1858 75.0567 54.2197 75.2613 53.5386 75.9022L53.4609 75.9753C59.7232 78.7431 67.3206 77.5694 72.4449 72.4452C77.5668 67.3233 78.7417 59.7307 75.9789 53.47C75.9544 53.496 75.9299 53.5221 75.9054 53.5481C75.2643 54.2289 75.0594 55.1946 75.3156 56.0938C76.813 61.3479 75.4993 67.2407 71.3698 71.3701C67.2381 75.5018 61.3412 76.8147 56.085 75.3135Z" fill="#F6F6F6"/>
<path d="M79.5443 56.806C81.2505 63.2054 79.4116 70.0795 74.7451 74.7459C70.0618 79.4293 63.1661 81.2625 56.749 79.5296C54.4041 78.8961 51.9683 79.3923 50.1514 80.8541C58.9863 86.1273 70.1514 84.7598 77.4547 77.4554C84.7542 70.1558 86.1253 58.9963 80.8598 50.163C79.4064 51.9934 78.9138 54.4422 79.5443 56.806Z" fill="#F6F6F6"/>
<path d="M52.0161 71.3796C51.2943 72.106 50.122 72.1067 49.3974 71.3832L49.3838 71.3696C43.3223 65.3081 43.3223 55.4452 49.3837 49.3838C55.4452 43.3222 65.3081 43.3222 71.3698 49.3838C71.3743 49.3884 71.3788 49.3928 71.3833 49.3974C72.1115 50.1278 72.0794 51.3209 71.3477 52.0479C65.0059 58.3487 58.3158 65.0388 52.0161 71.3796ZM51.3324 41.8906C58.173 38.3567 66.3684 39.3005 72.4647 43.7776C73.7108 45.0253 73.7102 47.0433 72.4632 48.2904L72.4448 48.3088C65.7904 41.6543 54.963 41.6543 48.3086 48.3087C41.6545 54.963 41.6545 65.7903 48.3089 72.4447C48.3089 72.4447 48.2705 72.483 48.2036 72.55C46.963 73.7033 45.0348 73.6889 43.8131 72.5038C36.6875 62.7837 39.1936 48.1619 51.3324 41.8906ZM74.0914 51.2601C79.809 45.2743 88.361 36.2571 93.75 30C92.4985 31.2088 90.3412 32.9623 88.0972 34.7082C83.8969 37.9758 76.7498 39.9893 72.0075 37.5747C62.3939 32.6795 50.3095 34.2474 42.2783 42.2785C34.2473 50.3096 32.6793 62.3939 37.5746 72.0076C39.9892 76.7498 37.9758 83.897 34.7081 88.0972C32.9623 90.3412 31.209 92.4984 30 93.75L33.4732 90.5512L35.4795 88.7522C48.5088 77.0726 61.94 63.856 74.0914 51.2601Z" fill="#F6F6F6"/>
</svg>
